<svg width="90" height="90" viewBox="0 0 90 90" fill="none" xmlns="http://www.w3.org/2000/svg">
<g clip-path="url(#clip0_6108_169)">
<g clip-path="url(#clip1_6108_169)">
<path d="M5.75042 57.723C6.28279 57.723 6.71473 57.2911 6.71473 56.7587V56.328C6.71473 55.7957 6.28279 55.3638 5.75042 55.3638C5.21805 55.3638 4.78613 55.7957 4.78613 56.328V56.7587C4.78613 57.2911 5.21805 57.723 5.75042 57.723Z" fill="#EB6753"/>
<path d="M4.78613 74.0771C4.78613 74.6093 5.21805 75.0413 5.75042 75.0413C6.28279 75.0413 6.71473 74.6093 6.71473 74.0771V60.1073C6.71473 59.575 6.28279 59.1431 5.75042 59.1431C5.21805 59.1431 4.78613 59.575 4.78613 60.1073V74.0771Z" fill="#EB6753"/>
<path d="M62.1612 16.0264C61.7604 15.6749 61.1526 15.7138 60.7998 16.1143C60.4488 16.5149 60.4884 17.1238 60.888 17.4754L72.0426 27.2639C72.4422 27.6143 73.0512 27.5771 73.4034 27.176C73.755 26.7755 73.7148 26.1665 73.3158 25.815L62.1612 16.0264Z" fill="#EB6753"/>
<path d="M58.2726 12.6152C57.8721 12.2661 57.2643 12.3051 56.9115 12.7056C56.5612 13.1061 56.6014 13.7151 57.002 14.0666L57.6938 14.6731C58.1006 15.027 58.7065 14.9791 59.0548 14.5827C59.4051 14.1822 59.3649 13.5732 58.9644 13.2216L58.2726 12.6152Z" fill="#EB6753"/>
<path d="M73.1022 52.6293V49.7493H74.2206C74.7474 49.7493 75.1848 49.325 75.1848 48.785C75.1848 48.2579 74.7474 47.8208 74.2206 47.8208H72.4848V41.1479H75.4032C78.129 41.1479 79.4148 37.7664 77.3574 35.9664L43.0547 5.86788C41.949 4.89072 40.2647 4.89072 39.1461 5.86788L24.7333 18.5193V14.7521H26.0834C26.919 14.7521 27.6005 14.0708 27.6005 13.2221V8.70923C27.6005 7.86071 26.919 7.17923 26.0834 7.17923H10.9762C10.1405 7.17923 9.4591 7.86071 9.4591 8.70923V13.2221C9.4591 14.0707 10.1405 14.7521 10.9762 14.7521H12.339V29.4093L4.86906 35.9664C2.82473 37.7664 4.09758 41.1479 6.8233 41.1479H9.74188V82.8563C8.73898 82.8821 7.71046 82.8947 6.70762 82.9205C6.16756 82.9463 5.7562 83.3837 5.76899 83.9105C5.78186 84.4379 6.2062 84.8495 6.7333 84.8495H6.74614C7.36336 84.8363 69.9906 84.8747 69.9906 84.8621C78.9132 84.7979 86.139 77.5205 86.139 68.5721C86.139 60.7037 80.5332 54.1335 73.1022 52.6293ZM11.3876 12.8235V9.10781H25.6719V12.8235H11.3876ZM22.8047 14.7521V20.2164L14.2676 27.7121V14.7521H22.8047ZM6.8233 39.2193C5.87186 39.2193 5.42189 38.0364 6.14188 37.4064L40.419 7.30787C40.8176 6.97355 41.3961 6.97355 41.7819 7.30787L76.0848 37.4064C76.8048 38.0364 76.3548 39.2193 75.4032 39.2193H6.8233ZM41.6276 82.8179H22.059V53.8635C22.059 53.0535 22.7148 52.4106 23.5247 52.4106H40.1747C40.9718 52.4106 41.6276 53.0535 41.6276 53.8635V82.8179ZM43.5561 82.8179V53.8635C43.5561 51.9993 42.039 50.4821 40.1747 50.4821H23.5247C21.6605 50.4821 20.1305 51.9993 20.1305 53.8635V82.8179H11.6705V41.1606H70.5564V47.8208H65.4522C64.9116 47.8208 64.4874 48.2579 64.4874 48.785C64.4874 49.325 64.9116 49.7493 65.4522 49.7493H66.6216V52.6293C59.1647 54.1464 53.5847 60.8447 53.5847 68.5721V68.5847C53.5976 74.6663 57.0433 80.0663 62.109 82.8179H43.5561ZM71.1732 49.7493V52.3593C70.479 52.295 69.309 52.295 68.5506 52.3593V49.7493H71.1732ZM69.8748 82.9337C61.8522 82.9337 55.5133 76.3505 55.5133 68.5721C55.5133 60.7037 62.019 54.1078 70.119 54.2365C77.8332 54.3779 84.2106 60.6779 84.2106 68.5721C84.2106 76.4921 77.7816 82.9337 69.8748 82.9337Z" fill="#181A20"/>
<path d="M71.1732 49.7493V52.3593C70.479 52.295 69.309 52.295 68.5506 52.3593V49.7493H71.1732Z" fill="#DDDDDD"/>
<path d="M11.3876 9.10791H25.6718V12.8237H11.3876V9.10791Z" fill="url(#paint0_linear_6108_169)"/>
<path d="M22.8047 14.7522V20.2165L14.2676 27.7123V14.7522H22.8047Z" fill="url(#paint1_linear_6108_169)"/>
<path d="M40.1748 52.4106H23.5248C22.7148 52.4106 22.0591 53.0535 22.0591 53.8635V82.8179H41.6276V53.8635C41.6276 53.0535 40.9719 52.4106 40.1748 52.4106ZM37.7448 68.6237H36.4333C35.8934 68.6237 35.4691 68.1995 35.4691 67.6595C35.4691 67.1321 35.8934 66.6947 36.4333 66.6947H37.7448C38.2719 66.6947 38.7091 67.1321 38.7091 67.6595C38.7091 68.1995 38.2719 68.6237 37.7448 68.6237Z" fill="url(#paint2_linear_6108_169)"/>
<path d="M41.1262 18.7637C36.9991 18.7637 33.6434 22.1194 33.6434 26.2466C33.6434 30.3608 36.9991 33.7037 41.1262 33.7037C45.2405 33.7037 48.5834 30.3608 48.5834 26.2466C48.5834 22.1194 45.2405 18.7637 41.1262 18.7637ZM41.1262 31.7751C38.0662 31.7751 35.572 29.2937 35.572 26.2466C35.572 23.1866 38.0662 20.6923 41.1262 20.6923C44.1734 20.6923 46.6548 23.1865 46.6548 26.2466C46.6548 29.2937 44.1734 31.7751 41.1262 31.7751Z" fill="#181A20"/>
<path d="M46.6548 26.2465C46.6548 29.2936 44.1734 31.775 41.1262 31.775C38.0662 31.775 35.572 29.2936 35.572 26.2465C35.572 23.1865 38.0662 20.6921 41.1262 20.6921C44.1734 20.6921 46.6548 23.1865 46.6548 26.2465Z" fill="#DDDDDD"/>
<path d="M38.7091 67.6596C38.7091 68.1996 38.2719 68.6238 37.7448 68.6238H36.4333C35.8934 68.6238 35.4691 68.1996 35.4691 67.6596C35.4691 67.1322 35.8934 66.6948 36.4333 66.6948H37.7448C38.2719 66.6948 38.7091 67.1322 38.7091 67.6596Z" fill="#181A20"/>
<path d="M57.4 53.5658C57.6071 53.5658 57.8168 53.4993 57.9938 53.3599C58.142 53.2444 58.2927 53.1289 58.4446 53.0184C58.8753 52.7045 58.9694 52.1018 58.6568 51.6711C58.3429 51.2404 57.7402 51.1438 57.3095 51.459C57.1376 51.5845 56.9693 51.7126 56.8036 51.8431C56.3842 52.1709 56.3114 52.7773 56.6404 53.1967C56.83 53.439 57.1137 53.5658 57.4 53.5658Z" fill="#EB6753"/>
<path d="M49.8351 65.2691C49.9029 65.2841 49.9707 65.2901 50.0385 65.2901C50.4829 65.2901 50.8835 64.9805 50.9802 64.5281C51.7084 61.1297 53.3557 57.9792 55.7451 55.419C56.1093 55.0298 56.0879 54.4196 55.6987 54.0567C55.3095 53.6926 54.7005 53.714 54.3364 54.1032C51.7084 56.9195 49.8954 60.3851 49.0943 64.1237C48.9826 64.6451 49.314 65.1575 49.8351 65.2691Z" fill="#EB6753"/>
<path d="M69.8706 57.6453C69.3378 57.6453 68.9064 58.0772 68.9064 58.6096C68.9064 59.142 69.3378 59.5738 69.8706 59.5738C74.8338 59.5738 78.8718 63.612 78.8718 68.5752C78.8718 73.5432 74.8338 77.5866 69.8706 77.5866C66.7026 77.5866 63.8238 75.969 62.1726 73.2594C61.8948 72.8064 61.3026 72.6618 60.8466 72.9384C60.3918 73.2156 60.2478 73.8096 60.525 74.2644C62.5302 77.5524 66.0246 79.515 69.8706 79.515C75.897 79.515 80.8002 74.607 80.8002 68.5752C80.8002 62.5482 75.897 57.6453 69.8706 57.6453Z" fill="#181A20"/>
<path d="M70.8264 66.9648V63.0948C70.8264 62.568 70.4016 62.1306 69.8622 62.1306C69.3348 62.1306 68.8974 62.568 68.8974 63.0948V66.9648C67.5348 67.3764 66.5316 68.6364 66.5316 70.1406C66.5316 71.9796 68.0232 73.4706 69.8622 73.4706C71.7006 73.4706 73.2048 71.9796 73.2048 70.1406C73.2048 68.6364 72.2022 67.3764 70.8264 66.9648ZM69.8622 71.5422C69.0906 71.5422 68.4606 70.9122 68.4606 70.1406C68.4606 69.3696 69.0906 68.7264 69.8622 68.7264C70.6332 68.7264 71.2764 69.3696 71.2764 70.1406C71.2764 70.9122 70.6332 71.5422 69.8622 71.5422Z" fill="#181A20"/>
<path d="M71.2764 70.1405C71.2764 70.9121 70.6332 71.5421 69.8622 71.5421C69.0906 71.5421 68.4606 70.9121 68.4606 70.1405C68.4606 69.3689 69.0906 68.7263 69.8622 68.7263C70.6332 68.7263 71.2764 69.3689 71.2764 70.1405Z" fill="#DDDDDD"/>
</g>
</g>
<defs>
<linearGradient id="paint0_linear_6108_169" x1="18.5297" y1="9.10791" x2="18.5297" y2="12.8237" gradientUnits="userSpaceOnUse">
<stop stop-color="#DDDDDD" stop-opacity="0"/>
<stop offset="1" stop-color="#DDDDDD"/>
</linearGradient>
<linearGradient id="paint1_linear_6108_169" x1="18.5362" y1="14.7522" x2="18.5362" y2="27.7123" gradientUnits="userSpaceOnUse">
<stop stop-color="#DDDDDD" stop-opacity="0"/>
<stop offset="1" stop-color="#DDDDDD"/>
</linearGradient>
<linearGradient id="paint2_linear_6108_169" x1="31.8433" y1="52.4106" x2="31.8433" y2="82.8179" gradientUnits="userSpaceOnUse">
<stop stop-color="#DDDDDD" stop-opacity="0"/>
<stop offset="1" stop-color="#DDDDDD"/>
</linearGradient>
<clipPath id="clip0_6108_169">
<rect width="90" height="90" fill="white"/>
</clipPath>
<clipPath id="clip1_6108_169">
<rect width="90" height="90" fill="white"/>
</clipPath>
</defs>
</svg>
