<svg width="90" height="90" viewBox="0 0 90 90" fill="none" xmlns="http://www.w3.org/2000/svg">
<g clip-path="url(#clip0_6108_202)">
<path d="M34.4434 44.0989H20.7211C20.1888 44.0989 19.7569 44.5308 19.7569 45.0632V60.2545C19.7569 60.7867 20.1888 61.2187 20.7211 61.2187C21.2535 61.2187 21.6854 60.7867 21.6854 60.2545V46.0275H34.4434C34.9757 46.0275 35.4077 45.5956 35.4077 45.0632C35.4077 44.5308 34.9757 44.0989 34.4434 44.0989Z" fill="#EB6753"/>
<path d="M20.7211 62.9099C20.1888 62.9099 19.7569 63.3419 19.7569 63.8741V65.4059C19.7569 65.9381 20.1888 66.3701 20.7211 66.3701C21.2535 66.3701 21.6854 65.9381 21.6854 65.4059V63.8741C21.6854 63.3419 21.2535 62.9099 20.7211 62.9099Z" fill="#EB6753"/>
<path d="M75.045 24.7929C75.3132 24.7929 75.5802 24.6824 75.7704 24.4652C76.122 24.0647 76.0824 23.4557 75.6816 23.1042L64.746 13.5078C64.3464 13.1562 63.7362 13.1964 63.3858 13.5957C63.0342 13.9962 63.0738 14.6052 63.474 14.9567L74.4096 24.5531C74.5926 24.7138 74.82 24.7929 75.045 24.7929Z" fill="#EB6753"/>
<path d="M61.4598 12.8725C61.728 12.8725 61.9938 12.762 62.1846 12.5448C62.5362 12.1443 62.4966 11.5353 62.097 11.1838L61.6164 10.7619C61.2162 10.4103 60.6078 10.4505 60.2556 10.8497C59.904 11.2503 59.9436 11.8592 60.3432 12.2108L60.8238 12.6327C61.0068 12.7934 61.2336 12.8725 61.4598 12.8725Z" fill="#EB6753"/>
<path d="M75.2814 51.2196V40.9982H80.424C83.214 40.9982 84.513 37.5396 82.4172 35.7011L46.9829 4.61252C45.8515 3.60963 44.1286 3.60963 42.9971 4.61252L28.0442 17.7267V13.7282H29.4715C30.32 13.7282 31.0142 13.0468 31.0142 12.1853V7.51815C31.0142 6.66963 30.32 5.97538 29.4715 5.97538H13.8757C13.0271 5.97538 12.3329 6.66963 12.3329 7.51815V12.1853C12.3329 13.0468 13.0271 13.7282 13.8757 13.7282H15.3029V28.9125L7.58856 35.7011C5.47999 37.5396 6.7914 40.9982 9.5814 40.9982H14.7371V84.2112H12.0115C11.4842 84.2112 11.0471 84.648 11.0471 85.1754C11.0471 85.7022 11.4842 86.1396 12.0115 86.1396H77.9946C78.534 86.1396 78.9588 85.7022 78.9588 85.1754C78.9588 84.648 78.534 84.2112 77.9946 84.2112H75.2814V73.8612C79.9872 72.2538 83.394 67.7922 83.394 62.5338C83.394 57.2882 79.9872 52.8268 75.2814 51.2196ZM14.2614 11.7996V7.90395H29.0857V11.7996H14.2614ZM26.1157 13.7411V19.4239L17.2314 27.2153V13.7411H26.1157ZM9.5814 39.0696C8.56572 39.0696 8.09004 37.8096 8.84856 37.1411L44.27 6.05253C44.4757 5.87251 44.7329 5.7825 44.99 5.7825C45.2471 5.7825 45.5042 5.87251 45.71 6.05253L81.144 37.1411C81.903 37.8096 81.4398 39.0696 80.424 39.0696H9.5814ZM73.353 84.2112C50.03 84.2112 51.4185 84.2112 16.6657 84.2112V40.9982H73.353V50.7311C68.2356 49.8954 62.9256 52.5182 60.5988 57.4554H45.9671V53.1996C45.9671 50.9496 44.1543 49.1367 41.9043 49.1367C39.68 49.1367 37.8542 50.9625 37.8542 53.1996V71.8938C37.8542 74.1054 39.6414 75.957 41.9043 75.957C44.1543 75.957 45.9671 74.1312 45.9671 71.8938V67.6254H60.5988C62.6298 71.9328 66.924 74.517 71.424 74.517C72.0414 74.517 72.8388 74.4396 73.353 74.3496V84.2112ZM59.8657 65.697H39.7828V59.3839C39.7828 59.3839 42.1742 59.3968 59.8657 59.3839C59.3643 61.248 59.2871 63.5496 59.8657 65.697ZM44.0385 67.6254V71.8938C44.0385 73.0638 43.0871 74.028 41.9043 74.028C40.7471 74.028 39.7828 73.077 39.7828 71.8938V67.6254H44.0385ZM39.7828 57.4554V53.1996C39.7828 52.0168 40.7342 51.0653 41.9043 51.0653C43.0871 51.0653 44.0385 52.0296 44.0385 53.1996V57.4554H39.7828ZM71.424 72.588C68.814 72.588 66.4488 71.5722 64.6488 69.9396C62.8614 68.307 61.6656 66.0438 61.4214 63.5496C60.8298 57.6096 65.5488 52.5054 71.424 52.5054C76.9272 52.5054 81.4656 56.9925 81.4656 62.5338C81.4656 68.1396 76.8756 72.588 71.424 72.588Z" fill="#181A20"/>
<path d="M71.424 52.5054C65.5488 52.5054 60.8298 57.6096 61.4214 63.5496C61.6656 66.0438 62.8614 68.307 64.6488 69.9396C66.4482 71.5728 68.814 72.588 71.424 72.588C76.8756 72.588 81.4656 68.1396 81.4656 62.5338C81.4656 56.9925 76.9272 52.5054 71.424 52.5054ZM74.0088 66.828C71.643 66.828 69.7272 64.8996 69.7272 62.547C69.7272 60.1812 71.643 58.2525 74.0088 58.2525C76.374 58.2525 78.303 60.1812 78.303 62.547C78.303 64.8996 76.374 66.828 74.0088 66.828Z" fill="url(#paint0_linear_6108_202)"/>
<path d="M44.0385 53.1997V57.4555H39.7828V53.1997C39.7828 52.0169 40.7343 51.0654 41.9043 51.0654C43.0871 51.0654 44.0385 52.0297 44.0385 53.1997Z" fill="#DDDDDD"/>
<path d="M44.0385 67.6255V71.8939C44.0385 73.0639 43.0871 74.0281 41.9043 74.0281C40.7471 74.0281 39.7828 73.0771 39.7828 71.8939V67.6255H44.0385Z" fill="#DDDDDD"/>
<path d="M14.2612 7.90454H29.0854V11.8003H14.2612V7.90454Z" fill="url(#paint1_linear_6108_202)"/>
<path d="M26.1156 13.7412V19.424L17.2314 27.2155V13.7412H26.1156Z" fill="url(#paint2_linear_6108_202)"/>
<path d="M45.0028 18.0225C40.8113 18.0225 37.3914 21.4424 37.3914 25.6339C37.3914 29.8253 40.8113 33.2324 45.0028 33.2324C49.1942 33.2324 52.6014 29.8253 52.6014 25.6339C52.6014 21.4424 49.1942 18.0225 45.0028 18.0225ZM45.0028 31.3038C41.8785 31.3038 39.32 28.7581 39.32 25.6339C39.32 22.4967 41.8785 19.951 45.0028 19.951C48.1271 19.951 50.6728 22.4967 50.6728 25.6339C50.6729 28.7581 48.1271 31.3038 45.0028 31.3038Z" fill="#181A20"/>
<path d="M50.6729 25.634C50.6729 28.7583 48.1271 31.304 45.0028 31.304C41.8786 31.304 39.32 28.7583 39.32 25.634C39.32 22.4969 41.8786 19.9512 45.0028 19.9512C48.1271 19.9512 50.6729 22.4969 50.6729 25.634Z" fill="#DDDDDD"/>
<path d="M51.238 72.6479H51.8237C52.3561 72.6479 52.788 72.2165 52.788 71.6837C52.788 71.1515 52.3561 70.7195 51.8237 70.7195H51.238C50.7056 70.7195 50.2737 71.1515 50.2737 71.6837C50.2737 72.2165 50.7056 72.6479 51.238 72.6479Z" fill="#EB6753"/>
<path d="M55.1046 72.6479H60.411C60.9438 72.6479 61.3758 72.2165 61.3758 71.6837C61.3758 71.1515 60.9438 70.7195 60.411 70.7195H55.1046C54.5722 70.7195 54.1403 71.1515 54.1403 71.6837C54.1403 72.2165 54.5722 72.6479 55.1046 72.6479Z" fill="#EB6753"/>
<path d="M74.0088 58.2524C71.643 58.2524 69.7272 60.1811 69.7272 62.5469C69.7272 64.8995 71.643 66.8279 74.0088 66.8279C76.374 66.8279 78.303 64.8995 78.303 62.5469C78.303 60.1811 76.374 58.2524 74.0088 58.2524ZM74.0088 64.8995C72.7098 64.8995 71.6556 63.8453 71.6556 62.5469C71.6556 61.2479 72.7098 60.1811 74.0088 60.1811C75.3072 60.1811 76.374 61.2479 76.374 62.5469C76.374 63.8453 75.3072 64.8995 74.0088 64.8995Z" fill="#181A20"/>
</g>
<defs>
<linearGradient id="paint0_linear_6108_202" x1="71.4186" y1="52.5054" x2="71.4186" y2="72.588" gradientUnits="userSpaceOnUse">
<stop stop-color="#DDDDDD" stop-opacity="0"/>
<stop offset="1" stop-color="#DDDDDD"/>
</linearGradient>
<linearGradient id="paint1_linear_6108_202" x1="21.6733" y1="7.90454" x2="21.6733" y2="11.8003" gradientUnits="userSpaceOnUse">
<stop stop-color="#DDDDDD" stop-opacity="0"/>
<stop offset="1" stop-color="#DDDDDD"/>
</linearGradient>
<linearGradient id="paint2_linear_6108_202" x1="21.6735" y1="13.7412" x2="21.6735" y2="27.2155" gradientUnits="userSpaceOnUse">
<stop stop-color="#DDDDDD" stop-opacity="0"/>
<stop offset="1" stop-color="#DDDDDD"/>
</linearGradient>
<clipPath id="clip0_6108_202">
<rect width="90" height="90" fill="white"/>
</clipPath>
</defs>
</svg>
