<svg width="90" height="90" viewBox="0 0 90 90" fill="none" xmlns="http://www.w3.org/2000/svg">
<g clip-path="url(#clip0_6108_136)">
<g clip-path="url(#clip1_6108_136)">
<path d="M26.6761 44.2056H16.3427C15.8104 44.2056 15.3784 44.6375 15.3784 45.1698V55.6829C15.3784 56.2152 15.8104 56.6471 16.3427 56.6471C16.8751 56.6471 17.307 56.2152 17.307 55.6829V46.1341H26.6761C27.2085 46.1341 27.6404 45.7022 27.6404 45.1698C27.6404 44.6375 27.2085 44.2056 26.6761 44.2056Z" fill="#EB6753"/>
<path d="M16.3427 58.7678C15.8104 58.7678 15.3784 59.1997 15.3784 59.7321V61.0393C15.3784 61.5715 15.8104 62.0035 16.3427 62.0035C16.8751 62.0035 17.307 61.5715 17.307 61.0393V59.7321C17.307 59.1997 16.8751 58.7678 16.3427 58.7678Z" fill="#EB6753"/>
<path d="M60.4062 12.9353C60.0546 13.3359 60.0948 13.9461 60.4938 14.2964L74.6154 26.6864C75.015 27.0368 75.624 26.9996 75.9762 26.5985C76.3278 26.198 76.2876 25.5878 75.8886 25.2375L61.767 12.8474C61.3668 12.4959 60.759 12.5336 60.4062 12.9353Z" fill="#EB6753"/>
<path d="M56.7599 9.73849C56.4095 10.139 56.4497 10.748 56.8503 11.0995L57.4391 11.6156C57.846 11.9695 58.4519 11.9216 58.8002 11.5252C59.1505 11.1247 59.1103 10.5157 58.7097 10.1641L58.1209 9.64807C57.7204 9.29905 57.1114 9.33667 56.7599 9.73849Z" fill="#EB6753"/>
<path d="M42.6295 17.939C38.3867 17.939 34.9409 21.3975 34.9409 25.6404C34.9409 29.8704 38.3867 33.3161 42.6295 33.3161C46.8594 33.3161 50.3052 29.8704 50.3052 25.6404C50.3052 21.3975 46.8594 17.939 42.6295 17.939ZM42.6295 31.3875C39.4538 31.3875 36.8695 28.8033 36.8695 25.6404C36.8695 22.4518 39.4538 19.8675 42.6295 19.8675C45.7923 19.8675 48.3766 22.4518 48.3766 25.6404C48.3766 28.8033 45.7923 31.3875 42.6295 31.3875Z" fill="#181A20"/>
<path d="M31.2638 68.4161C31.2638 68.9561 30.8267 69.3803 30.2995 69.3803H28.9495C28.4096 69.3803 27.9852 68.9561 27.9852 68.4161C27.9852 67.8887 28.4096 67.4519 28.9495 67.4519H30.2995C30.8267 67.4519 31.2638 67.8887 31.2638 68.4161Z" fill="#181A20"/>
<path d="M68.1918 58.126H58.8152C58.2828 58.126 57.851 58.5579 57.851 59.0903C57.851 59.6226 58.2828 60.0545 58.8152 60.0545H68.1918C68.724 60.0545 69.156 59.6226 69.156 59.0903C69.156 58.5579 68.724 58.126 68.1918 58.126Z" fill="#EB6753"/>
<path d="M55.4941 58.126H55.302C54.7697 58.126 54.3378 58.5579 54.3378 59.0903C54.3378 59.6226 54.7697 60.0545 55.302 60.0545H55.4941C56.0265 60.0545 56.4584 59.6226 56.4584 59.0903C56.4584 58.5579 56.0265 58.126 55.4941 58.126Z" fill="#EB6753"/>
<path d="M83.5926 63.2473H74.991V41.0047H78.0378C80.841 41.0047 82.1394 37.5333 80.0436 35.6947L44.6095 4.60612C43.4653 3.6033 41.7552 3.6033 40.6109 4.60612L25.6709 17.7333V13.7347H27.0852C27.9467 13.7347 28.6409 13.0404 28.6409 12.1918V7.52473C28.6409 6.67609 27.9467 5.98184 27.0852 5.98184H11.5023C10.6409 5.98184 9.94668 6.67609 9.94668 7.52473V12.1918C9.94668 13.0404 10.6409 13.7347 11.5023 13.7347H12.9295V28.919L5.20237 35.6947C3.10664 37.5461 4.4181 41.0047 7.2081 41.0047H10.2553V84.2179H6.87378C6.34668 84.2179 5.90952 84.6421 5.90952 85.1821C5.90952 85.7089 6.34668 86.1463 6.87378 86.1463H6.95094H83.5926C84.8268 86.1463 85.8294 85.1305 85.8294 83.8963V65.4847C85.8294 64.2505 84.8268 63.2473 83.5926 63.2473ZM11.8753 11.8062V7.91041H26.7124V11.8062H11.8753ZM23.7424 13.7347V19.4176L14.8581 27.2218V13.7347H23.7424ZM7.2081 39.0761C6.1923 39.0761 5.71662 37.8162 6.4752 37.1475L41.8838 6.05899C42.2952 5.69901 42.9252 5.69901 43.3366 6.05899L78.771 37.1475C79.5294 37.8162 79.0668 39.0761 78.0378 39.0761H7.2081ZM22.8295 54.1576V84.2179H12.1838V41.0047H73.0626V63.2473H46.9624V54.1576C46.9624 52.2547 45.4066 50.699 43.5038 50.699H26.3009C24.3852 50.699 22.8295 52.2547 22.8295 54.1576ZM45.0338 63.2731C43.9538 63.4273 43.1052 64.3921 43.1052 65.4847C43.1181 73.1347 43.0795 83.8321 43.1309 84.2179H24.758V54.1576C24.758 53.3218 25.4524 52.6276 26.3009 52.6276H43.5038C44.3395 52.6276 45.0338 53.3218 45.0338 54.1576V63.2731ZM83.901 83.8963C83.901 84.0763 83.7594 84.2179 83.5926 84.2179H45.3423C45.2523 84.2179 45.0466 84.0763 45.0466 83.9089V65.4847C45.0466 65.3179 45.2138 65.1763 45.3423 65.1763C46.0881 65.1889 73.2678 65.1763 83.5926 65.1763C83.7594 65.1763 83.901 65.3179 83.901 65.4847V83.8963Z" fill="#181A20"/>
<path d="M43.5038 52.6274H26.301C25.4524 52.6274 24.7581 53.3217 24.7581 54.1574V84.2177H43.131C43.0795 83.8319 43.1181 73.1345 43.1052 65.4845C43.1052 64.3919 43.9539 63.4271 45.0338 63.2729V54.1574C45.0338 53.3217 44.3395 52.6274 43.5038 52.6274ZM30.2995 69.3803H28.9495C28.4095 69.3803 27.9852 68.9561 27.9852 68.4161C27.9852 67.8887 28.4095 67.4519 28.9495 67.4519H30.2995C30.8267 67.4519 31.2638 67.8887 31.2638 68.4161C31.2638 68.9561 30.8267 69.3803 30.2995 69.3803Z" fill="url(#paint0_linear_6108_136)"/>
<path d="M11.8749 7.90967H26.712V11.8053H11.8749V7.90967Z" fill="url(#paint1_linear_6108_136)"/>
<path d="M23.7424 13.7346V19.4175L14.8582 27.2218V13.7346H23.7424Z" fill="url(#paint2_linear_6108_136)"/>
<path d="M48.3766 25.6403C48.3766 28.8032 45.7923 31.3875 42.6294 31.3875C39.4538 31.3875 36.8695 28.8032 36.8695 25.6403C36.8695 22.4518 39.4538 19.8674 42.6294 19.8674C45.7923 19.8674 48.3766 22.4518 48.3766 25.6403Z" fill="#DDDDDD"/>
<path d="M53.0052 71.283C51.128 71.283 49.598 72.813 49.598 74.6904C49.598 76.5804 51.128 78.1104 53.0052 78.1104C54.8952 78.1104 56.4123 76.5804 56.4123 74.6904C56.4123 72.813 54.8952 71.283 53.0052 71.283ZM53.0052 76.182C52.1952 76.182 51.5266 75.513 51.5266 74.6904C51.5266 73.8804 52.1952 73.212 53.0052 73.212C53.8281 73.212 54.4837 73.8804 54.4837 74.6904C54.4837 75.513 53.8281 76.182 53.0052 76.182Z" fill="#181A20"/>
<path d="M54.4837 74.6903C54.4837 75.5129 53.8281 76.1819 53.0052 76.1819C52.1952 76.1819 51.5266 75.5129 51.5266 74.6903C51.5266 73.8803 52.1952 73.2119 53.0052 73.2119C53.8281 73.2119 54.4837 73.8803 54.4837 74.6903Z" fill="#DDDDDD"/>
<path d="M75.9294 71.283C74.0526 71.283 72.5226 72.813 72.5226 74.6904C72.5226 76.5804 74.0526 78.1104 75.9294 78.1104C77.8068 78.1104 79.3368 76.5804 79.3368 74.6904C79.3368 72.813 77.8068 71.283 75.9294 71.283ZM75.9294 76.182C75.1068 76.182 74.451 75.513 74.451 74.6904C74.451 73.8804 75.1068 73.212 75.9294 73.212C76.7526 73.212 77.4078 73.8804 77.4078 74.6904C77.4078 75.513 76.7526 76.182 75.9294 76.182Z" fill="#181A20"/>
<path d="M77.4079 74.6903C77.4079 75.5129 76.7527 76.1819 75.9295 76.1819C75.1069 76.1819 74.451 75.5129 74.451 74.6903C74.451 73.8803 75.1069 73.2119 75.9295 73.2119C76.7527 73.2119 77.4079 73.8803 77.4079 74.6903Z" fill="#DDDDDD"/>
<path d="M64.4688 70.2245C65.436 70.2245 66.2232 71.0105 66.2232 71.9777C66.2232 72.5099 66.6552 72.9419 67.1874 72.9419C67.7196 72.9419 68.1516 72.5099 68.1516 71.9777C68.1516 70.2833 66.9942 68.8673 65.4336 68.4407V67.7249C65.4336 67.1927 65.0016 66.7607 64.4688 66.7607C63.9366 66.7607 63.5046 67.1927 63.5046 67.7249V68.4407C61.944 68.8673 60.7866 70.2833 60.7866 71.9777C60.7866 74.0081 62.439 75.6599 64.4688 75.6599C65.436 75.6599 66.2232 76.4471 66.2232 77.4143C66.2232 78.3809 65.436 79.1669 64.4688 79.1669C63.5022 79.1669 62.715 78.3809 62.715 77.4143C62.715 76.8821 62.283 76.4501 61.7508 76.4501C61.2186 76.4501 60.7866 76.8821 60.7866 77.4143C60.7866 79.1087 61.944 80.5247 63.5046 80.9513V81.6671C63.5046 82.1993 63.9366 82.6313 64.4688 82.6313C65.0016 82.6313 65.4336 82.1993 65.4336 81.6671V80.9513C66.9942 80.5247 68.1516 79.1087 68.1516 77.4143C68.1516 75.3839 66.4992 73.7315 64.4688 73.7315C63.5022 73.7315 62.715 72.9443 62.715 71.9777C62.715 71.0105 63.5022 70.2245 64.4688 70.2245Z" fill="#181A20"/>
</g>
</g>
<defs>
<linearGradient id="paint0_linear_6108_136" x1="34.896" y1="52.6274" x2="34.896" y2="84.2177" gradientUnits="userSpaceOnUse">
<stop stop-color="#DDDDDD" stop-opacity="0"/>
<stop offset="1" stop-color="#DDDDDD"/>
</linearGradient>
<linearGradient id="paint1_linear_6108_136" x1="19.2935" y1="7.90967" x2="19.2935" y2="11.8053" gradientUnits="userSpaceOnUse">
<stop stop-color="#DDDDDD" stop-opacity="0"/>
<stop offset="1" stop-color="#DDDDDD"/>
</linearGradient>
<linearGradient id="paint2_linear_6108_136" x1="19.3003" y1="13.7346" x2="19.3003" y2="27.2218" gradientUnits="userSpaceOnUse">
<stop stop-color="#DDDDDD" stop-opacity="0"/>
<stop offset="1" stop-color="#DDDDDD"/>
</linearGradient>
<clipPath id="clip0_6108_136">
<rect width="90" height="90" fill="white"/>
</clipPath>
<clipPath id="clip1_6108_136">
<rect width="90" height="90" fill="white"/>
</clipPath>
</defs>
</svg>
